<svg width="534" height="144" viewBox="0 0 534 144" fill="none" xmlns="http://www.w3.org/2000/svg">
<path d="M156.064 78.256C156.064 80.176 155.936 81.904 155.68 83.44H116.8C117.12 87.28 118.464 90.288 120.832 92.464C123.2 94.64 126.112 95.728 129.568 95.728C134.56 95.728 138.112 93.584 140.224 89.296H154.72C153.184 94.416 150.24 98.64 145.888 101.968C141.536 105.232 136.192 106.864 129.856 106.864C124.736 106.864 120.128 105.744 116.032 103.504C112 101.2 108.832 97.968 106.528 93.808C104.288 89.648 103.168 84.848 103.168 79.408C103.168 73.904 104.288 69.072 106.528 64.912C108.768 60.752 111.904 57.552 115.936 55.312C119.968 53.072 124.608 51.952 129.856 51.952C134.912 51.952 139.424 53.04 143.392 55.216C147.424 57.392 150.528 60.496 152.704 64.528C154.944 68.496 156.064 73.072 156.064 78.256ZM142.144 74.416C142.08 70.96 140.832 68.208 138.4 66.16C135.968 64.048 132.992 62.992 129.472 62.992C126.144 62.992 123.328 64.016 121.024 66.064C118.784 68.048 117.408 70.832 116.896 74.416H142.144ZM188.05 93.616L201.49 52.816H215.794L196.114 106H179.794L160.21 52.816H174.61L188.05 93.616ZM272.783 78.256C272.783 80.176 272.655 81.904 272.399 83.44H233.519C233.839 87.28 235.183 90.288 237.551 92.464C239.919 94.64 242.831 95.728 246.287 95.728C251.279 95.728 254.831 93.584 256.943 89.296H271.439C269.903 94.416 266.959 98.64 262.607 101.968C258.255 105.232 252.911 106.864 246.575 106.864C241.455 106.864 236.847 105.744 232.751 103.504C228.719 101.2 225.551 97.968 223.247 93.808C221.007 89.648 219.887 84.848 219.887 79.408C219.887 73.904 221.007 69.072 223.247 64.912C225.487 60.752 228.623 57.552 232.655 55.312C236.687 53.072 241.327 51.952 246.575 51.952C251.631 51.952 256.143 53.04 260.111 55.216C264.143 57.392 267.247 60.496 269.423 64.528C271.663 68.496 272.783 73.072 272.783 78.256ZM258.863 74.416C258.799 70.96 257.551 68.208 255.119 66.16C252.687 64.048 249.711 62.992 246.191 62.992C242.863 62.992 240.047 64.016 237.743 66.064C235.503 68.048 234.127 70.832 233.615 74.416H258.863ZM312.065 52.048C318.401 52.048 323.521 54.064 327.425 58.096C331.329 62.064 333.281 67.632 333.281 74.8V106H319.841V76.624C319.841 72.4 318.785 69.168 316.673 66.928C314.561 64.624 311.681 63.472 308.033 63.472C304.321 63.472 301.377 64.624 299.201 66.928C297.089 69.168 296.033 72.4 296.033 76.624V106H282.593V52.816H296.033V59.44C297.825 57.136 300.097 55.344 302.849 54.064C305.665 52.72 308.737 52.048 312.065 52.048ZM361.71 63.856V89.584C361.71 91.376 362.126 92.688 362.958 93.52C363.854 94.288 365.326 94.672 367.374 94.672H373.614V106H365.166C353.838 106 348.174 100.496 348.174 89.488V63.856H341.838V52.816H348.174V39.664H361.71V52.816H373.614V63.856H361.71ZM396.72 61.072C398.448 58.256 400.688 56.048 403.44 54.448C406.256 52.848 409.456 52.048 413.04 52.048V66.16H409.488C405.264 66.16 402.064 67.152 399.888 69.136C397.776 71.12 396.72 74.576 396.72 79.504V106H383.28V52.816H396.72V61.072ZM471.533 78.256C471.533 80.176 471.405 81.904 471.149 83.44H432.269C432.589 87.28 433.933 90.288 436.301 92.464C438.669 94.64 441.581 95.728 445.037 95.728C450.029 95.728 453.581 93.584 455.693 89.296H470.189C468.653 94.416 465.709 98.64 461.357 101.968C457.005 105.232 451.661 106.864 445.325 106.864C440.205 106.864 435.597 105.744 431.501 103.504C427.469 101.2 424.301 97.968 421.997 93.808C419.757 89.648 418.637 84.848 418.637 79.408C418.637 73.904 419.757 69.072 421.997 64.912C424.237 60.752 427.373 57.552 431.405 55.312C435.437 53.072 440.077 51.952 445.325 51.952C450.381 51.952 454.893 53.04 458.861 55.216C462.893 57.392 465.997 60.496 468.173 64.528C470.413 68.496 471.533 73.072 471.533 78.256ZM457.613 74.416C457.549 70.96 456.301 68.208 453.869 66.16C451.437 64.048 448.461 62.992 444.941 62.992C441.613 62.992 438.797 64.016 436.493 66.064C434.253 68.048 432.877 70.832 432.365 74.416H457.613ZM530.783 78.256C530.783 80.176 530.655 81.904 530.399 83.44H491.519C491.839 87.28 493.183 90.288 495.551 92.464C497.919 94.64 500.831 95.728 504.287 95.728C509.279 95.728 512.831 93.584 514.943 89.296H529.439C527.903 94.416 524.959 98.64 520.607 101.968C516.255 105.232 510.911 106.864 504.575 106.864C499.455 106.864 494.847 105.744 490.751 103.504C486.719 101.2 483.551 97.968 481.247 93.808C479.007 89.648 477.887 84.848 477.887 79.408C477.887 73.904 479.007 69.072 481.247 64.912C483.487 60.752 486.623 57.552 490.655 55.312C494.687 53.072 499.327 51.952 504.575 51.952C509.631 51.952 514.143 53.04 518.111 55.216C522.143 57.392 525.247 60.496 527.423 64.528C529.663 68.496 530.783 73.072 530.783 78.256ZM516.863 74.416C516.799 70.96 515.551 68.208 513.119 66.16C510.687 64.048 507.711 62.992 504.191 62.992C500.863 62.992 498.047 64.016 495.743 66.064C493.503 68.048 492.127 70.832 491.615 74.416H516.863Z" fill="#34364B"/>
<path fill-rule="evenodd" clip-rule="evenodd" d="M30 19C13.4314 19 0 32.4316 0 49H78V43C73.0294 43 69 38.9707 69 34C69 29.0293 73.0294 25 78 25V19H30Z" fill="url(#paint0_linear_154_136)"/>
<path fill-rule="evenodd" clip-rule="evenodd" d="M30 126C13.4315 126 0 112.569 0 96H78V102C73.0294 102 69 106.029 69 111C69 115.971 73.0294 120 78 120V126H30Z" fill="url(#paint1_linear_154_136)"/>
<path fill-rule="evenodd" clip-rule="evenodd" d="M57 60H0V85H57V80C52.5817 80 49 76.418 49 72C49 67.582 52.5817 64 57 64V60Z" fill="#632BC1"/>
<defs>
<linearGradient id="paint0_linear_154_136" x1="39" y1="19" x2="39" y2="49" gradientUnits="userSpaceOnUse">
<stop stop-color="#8B5CF6"/>
<stop offset="1" stop-color="#5B21B6"/>
</linearGradient>
<linearGradient id="paint1_linear_154_136" x1="39" y1="126" x2="39" y2="96" gradientUnits="userSpaceOnUse">
<stop stop-color="#8B5CF6"/>
<stop offset="1" stop-color="#5B21B6"/>
</linearGradient>
</defs>
</svg>
